# xmcd
#
# Track frame offsets: 
#        150
#        17828
#        49232
#        62564
#        80393
#        94857
#        111154
#        129835
#        151051
#        168262
#        185936
#        199143
#        214580
#        225205
#
# Disc length: 3319 seconds
#
# Revision: 0
# Processed by: cddbd v1.5PL3 Copyright (c) Steve Scherf et al.
# Submitted via: ExactAudioCopy v0.95a5
#
DISCID=af0cf50e
DTITLE=Dread Clampitt - Wrack and Ruin
DYEAR=2004
DGENRE=Bluegrass
TTITLE0=Dread Clampitt
TTITLE1=Introduce Yourself
TTITLE2=Ain't Got Nothin' But Love
TTITLE3=Walkabout
TTITLE4=Bayou Country
TTITLE5=A House with Gold Bars
TTITLE6=Wanna Be a Rock Star
TTITLE7=The Boat
TTITLE8=Lonesome, On'ry, and Mean
TTITLE9=Sittin' in Atlanta
TTITLE10=Linin' Track
TTITLE11=What STate I'm In
TTITLE12=Scotland
TTITLE13=Ridin' High
EXTD=
EXTT0=
EXTT1=
EXTT2=
EXTT3=
EXTT4=
EXTT5=
EXTT6=
EXTT7=
EXTT8=
EXTT9=
EXTT10=
EXTT11=
EXTT12=
EXTT13=
PLAYORDER=
